<?xml version="1.0" standalone="no"?>
<!DOCTYPE svg PUBLIC "-//W3C//DTD SVG 20010904//EN"
 "http://www.w3.org/TR/2001/REC-SVG-20010904/DTD/svg10.dtd">
<svg version="1.0" xmlns="http://www.w3.org/2000/svg"
 width="384.000000pt" height="35.000000pt" viewBox="0 0 384.000000 35.000000"
 preserveAspectRatio="xMidYMid meet">

<g transform="translate(0.000000,35.000000) scale(0.100000,-0.100000)"
fill="#000000" stroke="none">
<path d="M27 293 c-4 -3 -7 -62 -7 -130 l0 -123 25 0 c24 0 25 2 25 70 l0 70
35 0 c19 0 35 5 35 10 0 6 -16 10 -35 10 -34 0 -35 1 -35 40 l0 40 48 0 c34 0
43 3 32 10 -17 11 -113 14 -123 3z"/>
<path d="M263 289 c-39 -11 -80 -59 -89 -104 -7 -41 18 -100 57 -128 33 -24
120 -25 155 -2 62 41 84 137 42 190 -38 48 -96 64 -165 44z m110 -29 c55 -44
53 -136 -4 -184 -35 -30 -58 -32 -99 -11 -75 39 -80 162 -9 201 35 20 83 17
112 -6z"/>
<path d="M565 286 c-48 -22 -77 -60 -82 -109 -10 -83 44 -139 133 -139 63 0
105 28 128 85 18 44 19 51 6 89 -8 23 -27 50 -41 61 -34 25 -105 31 -144 13z
m128 -34 c30 -30 34 -108 8 -150 -58 -91 -181 -46 -181 67 0 51 19 87 54 102
32 13 96 3 119 -19z"/>
<path d="M781 281 c-6 -11 -11 -28 -11 -38 0 -15 4 -13 25 10 15 15 36 27 50
27 l25 0 0 -114 c0 -83 4 -117 13 -125 8 -6 17 -8 20 -4 4 3 7 62 7 131 l0
124 28 -6 c15 -4 32 -14 38 -22 16 -21 26 -17 22 9 -3 21 -8 22 -105 25 -93 2
-103 1 -112 -17z"/>
<path d="M1050 165 l0 -135 28 0 c118 1 178 72 121 144 -15 19 -19 34 -14 54
8 38 -16 58 -82 66 l-53 7 0 -136z m74 109 c18 -7 22 -59 6 -69 -6 -4 2 -18
20 -35 17 -16 30 -38 30 -52 0 -30 -41 -71 -67 -66 -16 3 -18 16 -21 116 -3
111 0 118 32 106z"/>
<path d="M1353 286 c8 -21 -20 -79 -79 -164 -24 -35 -44 -68 -44 -73 0 -20 25
-2 49 34 l24 37 76 0 76 0 20 -38 c15 -27 28 -38 48 -40 15 -2 27 -1 27 2 0 9
-130 220 -143 232 -7 7 -23 15 -36 19 -20 6 -23 4 -18 -9z m56 -82 c28 -46 27
-64 -3 -64 -13 0 -38 -3 -55 -6 -19 -4 -31 -2 -31 4 0 11 58 102 65 102 2 0
12 -16 24 -36z"/>
<path d="M1570 170 l0 -130 80 0 c67 0 83 3 100 20 34 34 22 42 -23 15 -25
-14 -59 -25 -80 -25 l-37 0 0 125 c0 118 -1 125 -20 125 -19 0 -20 -7 -20
-130z"/>
<path d="M1817 293 c-4 -3 -7 -62 -7 -130 l0 -123 83 0 c69 0 87 3 100 18 30
33 18 42 -20 16 -28 -18 -48 -24 -78 -22 l-40 3 -3 123 c-2 92 -6 122 -16 122
-7 0 -16 -3 -19 -7z"/>
<path d="M2168 170 c3 -121 4 -130 23 -130 18 0 19 8 19 125 0 129 2 135 41
115 29 -16 27 -87 -3 -100 l-23 -9 22 0 c12 -1 34 9 49 22 54 47 2 107 -93
107 l-38 0 3 -130z"/>
<path d="M2394 283 c7 -17 -12 -56 -74 -148 -64 -96 -63 -95 -46 -95 9 0 28
18 42 40 l27 40 73 0 73 0 22 -40 c18 -32 28 -40 52 -40 l29 0 -20 33 c-11 17
-33 55 -50 83 -60 102 -83 132 -108 137 -19 3 -24 1 -20 -10z m54 -82 c12 -21
22 -43 22 -48 0 -10 -110 -26 -118 -18 -4 4 61 104 69 104 3 1 15 -16 27 -38z"/>
<path d="M2625 288 c-3 -8 -4 -68 -3 -134 2 -98 6 -119 18 -119 12 0 15 22 18
123 3 121 3 123 25 120 28 -4 36 -52 12 -77 -14 -16 -14 -19 0 -31 8 -7 15
-22 15 -34 0 -37 20 -94 35 -100 17 -6 45 2 45 14 0 4 -8 7 -17 6 -14 -1 -20
12 -30 58 -6 32 -16 62 -23 66 -8 5 -6 11 5 20 19 16 20 64 0 80 -23 19 -94
25 -100 8z"/>
<path d="M2933 286 c8 -21 -9 -57 -72 -151 -65 -96 -64 -95 -47 -95 9 0 28 18
42 40 l27 40 76 0 77 0 18 -40 c15 -34 22 -40 48 -40 l30 0 -28 48 c-55 94
-126 202 -134 202 -5 0 -16 3 -26 7 -14 5 -16 3 -11 -11z m57 -86 c11 -21 20
-43 20 -48 0 -9 -99 -23 -112 -16 -7 5 53 103 64 103 4 1 17 -17 28 -39z"/>
<path d="M3177 168 c2 -133 2 -133 27 -136 41 -5 100 16 130 47 34 35 45 104
26 152 -17 39 -77 68 -140 69 l-45 0 2 -132z m118 87 c21 -20 25 -34 25 -80 0
-84 -27 -125 -81 -125 -18 0 -19 8 -19 115 l0 115 25 0 c14 0 37 -11 50 -25z"/>
<path d="M3417 293 c-4 -3 -7 -64 -7 -135 0 -105 3 -128 14 -128 25 0 27 16
20 145 -6 117 -11 135 -27 118z"/>
<path d="M3584 289 c-18 -5 -36 -19 -43 -36 -11 -23 -9 -33 18 -85 36 -68 39
-103 11 -118 -28 -15 -60 -3 -60 21 0 10 -4 19 -10 19 -14 0 -13 -33 2 -48 16
-16 53 -15 87 3 49 25 54 71 15 129 -15 21 -27 52 -28 70 -1 30 0 31 37 29 27
-2 37 1 34 10 -5 16 -24 18 -63 6z"/>
<path d="M3687 293 c-11 -10 -8 -251 2 -258 17 -10 120 7 125 21 4 11 -1 13
-20 8 -57 -15 -59 -13 -62 54 l-3 62 36 0 c19 0 35 5 35 10 0 6 -16 10 -35 10
-34 0 -35 1 -35 40 l0 40 48 0 c34 0 43 3 32 10 -17 11 -113 14 -123 3z"/>
</g>
</svg>
